<svg width="243" height="50" viewBox="0 0 243 50" fill="none" xmlns="http://www.w3.org/2000/svg">
<path fill-rule="evenodd" clip-rule="evenodd" d="M93.1612 28.9628C90.9255 40.4754 78.6779 47.3765 65.2588 47.3765C51.8409 47.3765 42.2706 40.4767 44.5063 28.9628C46.6947 17.6853 59.0852 10.3599 72.4454 10.3599C85.8042 10.3599 95.3496 17.6866 93.1612 28.9628ZM126.262 22.5882L135.172 22.2551L127.696 46.807H143.682L151.156 22.2551L159.865 22.5882L163.414 10.9306H129.808L126.262 22.5882ZM67.4564 36.0532C62.6169 36.0532 59.7771 33.2453 60.5699 29.1535C61.309 25.3478 65.0779 22.1585 70.1534 22.1611C75.2288 22.1611 77.7606 25.3478 77.0215 29.1535C76.2274 33.2466 72.2986 36.0532 67.4564 36.0532Z" fill="#E31837"/>
<path fill-rule="evenodd" clip-rule="evenodd" d="M35.5962 2C40.1082 2 44.6371 2.63211 48.6275 3.78272L45.903 20.2856C43.1733 17.9282 39.5748 15.9144 35.0642 15.9144C29.099 15.9144 23.4744 19.6548 22.5296 24.3696C21.5743 29.1444 26.0023 32.826 31.9689 32.826C36.5542 32.826 40.5026 31.2732 44.1994 28.7996L40.369 45.0191C36.9264 46.2258 29.4004 46.743 25.8346 46.743C10.1916 46.743 -0.108663 37.1398 2.3668 24.7744C4.89993 12.1217 19.5155 2 35.5962 2ZM88.193 44.0931C92.7548 46.137 98.9323 47.3764 104.474 47.3764C113.984 47.3764 124.374 43.1423 126.035 34.5774C127.217 28.4874 122.892 25.5371 116.363 24.3003L112.874 23.6343C112.745 23.608 112.606 23.5824 112.462 23.5558C111.294 23.3399 109.777 23.0595 110.007 21.8724C110.293 20.3979 112.418 19.9683 113.819 19.9683C117.259 19.9683 120.122 21.158 122.568 22.6809L128.667 13.4982C124.764 11.3576 120.351 10.3598 115.333 10.3598C105.765 10.3598 95.3311 15.1177 93.6786 23.6343C92.5883 29.2488 97.2575 32.2462 103.324 33.1512L106.44 33.6253C106.579 33.649 106.725 33.6717 106.874 33.6949L106.874 33.695L106.874 33.695L106.874 33.6951C108.238 33.9078 109.895 34.1662 109.611 35.6235C109.297 37.2404 106.688 37.7641 105.111 37.7641C101.435 37.7641 98.2797 36.2896 95.7728 34.4821L95.0586 33.9584L88.193 44.0931ZM194.531 11.8343C191.333 10.8823 187.699 10.3598 184.081 10.3598C171.189 10.3598 159.47 18.7341 157.438 29.2018C155.451 39.4319 163.711 47.3777 176.255 47.3777C179.112 47.3777 185.145 46.9494 187.909 45.9503L190.981 32.5335C188.014 34.5787 184.85 35.8639 181.174 35.8639C176.393 35.8639 172.84 32.8182 173.608 28.8714C174.365 24.969 178.876 21.8777 183.659 21.8777C187.276 21.8777 190.16 23.5428 192.351 25.4953L194.531 11.8343ZM192.188 28.9628C194.377 17.6853 206.768 10.3598 220.127 10.3598C233.484 10.3598 243.03 17.6866 240.844 28.9628C238.609 40.4767 226.359 47.3764 212.943 47.3764C199.524 47.3764 189.953 40.4754 192.188 28.9628ZM217.836 22.1585C222.911 22.1585 225.445 25.3451 224.703 29.1509C223.91 33.2427 219.98 36.0506 215.138 36.0506C210.296 36.0506 207.457 33.244 208.251 29.1509C208.99 25.3478 212.761 22.1585 217.836 22.1585Z" fill="#E31837"/>
<path fill-rule="evenodd" clip-rule="evenodd" d="M234.172 42.8003C232.647 42.8003 231.246 43.8098 231.006 45.0623C230.767 46.3213 231.783 47.3322 233.307 47.3322C234.823 47.3322 236.231 46.3226 236.473 45.0623C236.712 43.8098 235.686 42.8003 234.172 42.8003ZM234.057 43.3919C235.226 43.3919 235.952 44.0541 235.76 45.0623C235.568 46.0732 234.589 46.7406 233.421 46.7406C232.232 46.7406 231.527 46.0719 231.72 45.0623C231.91 44.0541 232.869 43.3919 234.057 43.3919ZM234.787 46.2469H234.08L233.636 45.2426H233.173L232.982 46.2469H232.382L232.834 43.8751H234.219C234.83 43.8751 235.16 44.0436 235.055 44.6013C234.975 45.0075 234.657 45.2164 234.289 45.2452L234.787 46.2469ZM234.519 44.536C234.469 44.7894 234.211 44.7894 233.911 44.7894H233.264L233.349 44.327H233.999C234.299 44.327 234.559 44.327 234.519 44.536Z" fill="#E31837"/>
</svg>
